<svg width="16" height="16" viewBox="0 0 16 16" fill="none" xmlns="http://www.w3.org/2000/svg">
<g clip-path="url(#clip0_103_3201)">
<path fill-rule="evenodd" clip-rule="evenodd" d="M5.70498 12.0986V4.81225C5.70498 4.20839 5.94498 3.62913 6.37191 3.2022C6.79884 2.77527 7.3781 2.53527 7.98196 2.53527C9.23953 2.53527 10.2589 3.55467 10.2589 4.81225C10.2589 7.05006 10.2589 10.1538 10.2589 12.0986C10.2589 12.4608 10.115 12.8083 9.85886 13.0647C9.60247 13.3208 9.25501 13.4648 8.89275 13.4648C8.13816 13.4648 7.52656 12.8532 7.52656 12.0986V4.81225C7.52656 4.69157 7.5746 4.57567 7.65999 4.49028C7.74538 4.4049 7.86128 4.35685 7.98196 4.35685C8.10263 4.35685 8.21853 4.4049 8.30392 4.49028C8.38931 4.57567 8.43735 4.69157 8.43735 4.81225C8.43735 6.57417 8.43735 10.277 8.43735 10.277C8.43735 10.5284 8.64137 10.7324 8.89275 10.7324C9.14412 10.7324 9.34814 10.5284 9.34814 10.277C9.34814 10.277 9.34814 6.57417 9.34814 4.81225C9.34814 4.44998 9.20423 4.10252 8.94807 3.84613C8.69168 3.58997 8.34422 3.44606 7.98196 3.44606V3.90146C7.98196 3.44606 7.98196 3.44606 7.98196 3.44606C7.61969 3.44606 7.27223 3.58997 7.01584 3.84613C6.75968 4.10252 6.61577 4.44998 6.61577 4.81225C6.61577 6.45622 6.61577 9.94796 6.61577 12.0986C6.61577 13.3561 7.63517 14.3755 8.89275 14.3755C9.4966 14.3755 10.0759 14.1355 10.5028 13.7086C10.9297 13.2817 11.1697 12.7024 11.1697 12.0986C11.1697 10.1538 11.1697 7.05006 11.1697 4.81225C11.1697 3.05169 9.74251 1.62448 7.98196 1.62448C7.13651 1.62448 6.32569 1.96034 5.72798 2.55827C5.13005 3.15598 4.79419 3.96681 4.79419 4.81225V12.0986C4.79419 12.3499 4.99821 12.554 5.24958 12.554C5.50096 12.554 5.70498 12.3499 5.70498 12.0986Z" fill="#003161"/>
</g>
<defs>
<clipPath id="clip0_103_3201">
<rect width="14.5726" height="14.5726" fill="white" transform="translate(0.695679 0.713684)"/>
</clipPath>
</defs>
</svg>
