<svg width="52" height="50" viewBox="0 0 52 50" fill="none" xmlns="http://www.w3.org/2000/svg">
<path d="M50.52 25C50.52 38.5215 39.3322 49.5 25.51 49.5C11.6878 49.5 0.5 38.5215 0.5 25C0.5 11.4785 11.6878 0.5 25.51 0.5C39.3322 0.5 50.52 11.4785 50.52 25Z" fill="white" stroke="#003161"/>
<path d="M25.51 48.5C38.7704 48.5 49.52 37.9787 49.52 25C49.52 12.0213 38.7704 1.5 25.51 1.5C12.2496 1.5 1.5 12.0213 1.5 25C1.5 37.9787 12.2496 48.5 25.51 48.5Z" fill="white" stroke="#003161" stroke-width="3" stroke-linejoin="round"/>
<path d="M22.5096 27.8581L22.156 27.5046L17.7771 23.1256C17.777 23.1256 17.777 23.1256 17.777 23.1256C17.6832 23.0319 17.5561 22.9792 17.4236 22.9792C17.291 22.9792 17.1639 23.0319 17.0701 23.1256L17.0701 23.1256M22.5096 27.8581L17.0701 23.1256M22.5096 27.8581L22.8631 27.5046L32.242 18.1256C32.2421 18.1256 32.2421 18.1256 32.2421 18.1256C32.3359 18.0319 32.463 17.9792 32.5956 17.9792C32.7281 17.9792 32.8552 18.0319 32.949 18.1256C32.949 18.1256 32.949 18.1256 32.9491 18.1256L34.3629 19.5395C34.4567 19.6333 34.5093 19.7605 34.5093 19.893C34.5093 20.0256 34.4567 20.1528 34.3629 20.2465L22.8631 31.7464C22.863 31.7464 22.863 31.7465 22.863 31.7465C22.7692 31.8402 22.6421 31.8928 22.5096 31.8928C22.377 31.8928 22.2499 31.8402 22.1561 31.7465C22.1561 31.7465 22.1561 31.7464 22.1561 31.7464L15.6562 25.2465L22.5096 27.8581ZM17.0701 23.1256L15.6562 24.5395M17.0701 23.1256L15.6562 24.5395M15.6562 24.5395C15.6561 24.5396 15.6561 24.5396 15.6561 24.5396C15.5624 24.6333 15.5098 24.7605 15.5098 24.893C15.5098 25.0256 15.5624 25.1527 15.6561 25.2465L15.6562 24.5395Z" fill="#003161" stroke="#003161"/>
</svg>
