<svg width="32" height="32" viewBox="0 0 32 32" fill="none" xmlns="http://www.w3.org/2000/svg">
<path fill-rule="evenodd" clip-rule="evenodd" d="M15.9995 12.8554C14.2264 12.8554 12.7851 14.298 12.7851 16.0712C12.7851 17.843 14.2264 19.2843 15.9995 19.2843C17.7727 19.2843 19.2153 17.843 19.2153 16.0712C19.2153 14.298 17.7727 12.8554 15.9995 12.8554ZM15.9995 21.2841C13.1238 21.2841 10.7853 18.9456 10.7853 16.0712C10.7853 13.1954 13.1238 10.8556 15.9995 10.8556C18.8753 10.8556 21.2151 13.1954 21.2151 16.0712C21.2151 18.9456 18.8753 21.2841 15.9995 21.2841Z" fill="#7F7F7F"/>
<mask id="mask0_100_2449" style="mask-type:luminance" maskUnits="userSpaceOnUse" x="2" y="5" width="28" height="22">
<path fill-rule="evenodd" clip-rule="evenodd" d="M2.66797 5.33459H29.3323V26.8062H2.66797V5.33459Z" fill="white"/>
</mask>
<g mask="url(#mask0_100_2449)">
<path fill-rule="evenodd" clip-rule="evenodd" d="M4.76072 16.07C7.24052 21.5482 11.4175 24.8053 15.9998 24.8066C20.5821 24.8053 24.7591 21.5482 27.2389 16.07C24.7591 10.5931 20.5821 7.33607 15.9998 7.33473C11.4188 7.33607 7.24052 10.5931 4.76072 16.07ZM16.0026 26.8067H15.9972H15.9959C10.4817 26.8027 5.53007 22.9377 2.74896 16.4649C2.64097 16.2129 2.64097 15.9276 2.74896 15.6756C5.53007 9.20413 10.483 5.33911 15.9959 5.33511C15.9986 5.33377 15.9986 5.33377 15.9999 5.33511C16.0026 5.33377 16.0026 5.33377 16.0039 5.33511C21.5181 5.33911 26.4697 9.20413 29.2508 15.6756C29.3601 15.9276 29.3601 16.2129 29.2508 16.4649C26.471 22.9377 21.5181 26.8027 16.0039 26.8067H16.0026Z" fill="#7F7F7F"/>
</g>
</svg>
