<svg width="40" height="40" viewBox="0 0 40 40" fill="none" xmlns="http://www.w3.org/2000/svg">
<rect x="1" y="1" width="38" height="38" rx="19" stroke="#D4D4D4" stroke-width="2"/>
<path d="M21.9186 9.99976C22.7829 9.99976 23.5826 10.4574 24.0203 11.2027L24.9028 12.7048H27.146C29.0905 12.7048 30.6668 14.2811 30.6668 16.2256V26.5173C30.6668 28.4618 29.0905 30.0382 27.146 30.0382H12.521C10.5765 30.0382 9.00018 28.4618 9.00018 26.5173V16.2256C9.00018 14.2811 10.5765 12.7048 12.521 12.7048H14.7748L15.7223 11.1618C16.1656 10.4398 16.9521 9.99976 17.7994 9.99976H21.9186ZM19.8335 15.9548C17.1411 15.9548 14.9585 18.1374 14.9585 20.8298C14.9585 23.5221 17.1411 25.7048 19.8335 25.7048C22.5259 25.7048 24.7085 23.5221 24.7085 20.8298C24.7085 18.1374 22.5259 15.9548 19.8335 15.9548ZM19.8335 17.5798C21.6285 17.5798 23.0835 19.0349 23.0835 20.8298C23.0835 22.6247 21.6285 24.0798 19.8335 24.0798C18.0385 24.0798 16.5835 22.6247 16.5835 20.8298C16.5835 19.0349 18.0385 17.5798 19.8335 17.5798Z" fill="#D4D4D4"/>
</svg>
