<svg width="19" height="26" viewBox="0 0 19 26" fill="none" xmlns="http://www.w3.org/2000/svg">
<path d="M11.1875 7.14062V0.5H1.42188C0.772461 0.5 0.25 1.02246 0.25 1.67188V24.3281C0.25 24.9775 0.772461 25.5 1.42188 25.5H17.8281C18.4775 25.5 19 24.9775 19 24.3281V8.3125H12.3594C11.7148 8.3125 11.1875 7.78516 11.1875 7.14062ZM14.3701 17.688H11.1875V21.5942C11.1875 22.0259 10.8379 22.3755 10.4062 22.3755H8.84375C8.41211 22.3755 8.0625 22.0259 8.0625 21.5942V17.688H4.87988C4.18262 17.688 3.83447 16.8438 4.32959 16.3521L9.0376 11.6792C9.3623 11.3564 9.88672 11.3564 10.2114 11.6792L14.9194 16.3521C15.415 16.8438 15.0674 17.688 14.3701 17.688ZM18.6582 5.62695L13.8779 0.841797C13.6582 0.62207 13.3604 0.5 13.0479 0.5H12.75V6.75H19V6.45215C19 6.14453 18.8779 5.84668 18.6582 5.62695Z" fill="#003161"/>
</svg>
