<svg width="20" height="20" viewBox="0 0 20 20" fill="none" xmlns="http://www.w3.org/2000/svg">
<path d="M16.0275 7.42955L15.7334 16.2045C15.7084 16.956 15.3873 17.6683 14.8383 18.1903C14.2893 18.7122 13.5556 19.0026 12.793 19H7.20625C6.44411 19.0027 5.71087 18.7126 5.16196 18.1913C4.61306 17.67 4.29164 16.9584 4.26584 16.2074L3.9718 7.42955C3.96537 7.23733 4.03665 7.05046 4.16996 6.91005C4.30327 6.76964 4.48769 6.6872 4.68265 6.68085C4.87761 6.67451 5.06714 6.74479 5.20955 6.87622C5.35195 7.00766 5.43557 7.18949 5.44201 7.38172L5.73605 16.1588C5.75069 16.5335 5.91202 16.8881 6.18617 17.1479C6.46031 17.4078 6.82594 17.5529 7.20625 17.5526H12.793C13.1738 17.5528 13.5399 17.4074 13.8141 17.1469C14.0883 16.8864 14.2493 16.5311 14.2632 16.1559L14.5573 7.38172C14.5637 7.18949 14.6473 7.00766 14.7897 6.87622C14.9321 6.74479 15.1217 6.67451 15.3166 6.68085C15.5116 6.6872 15.696 6.76964 15.8293 6.91005C15.9626 7.05046 16.0339 7.23733 16.0275 7.42955ZM17 4.5094C17 4.70163 16.9226 4.88598 16.7847 5.0219C16.6468 5.15783 16.4599 5.23419 16.2649 5.23419H3.7351C3.54014 5.23419 3.35316 5.15783 3.21531 5.0219C3.07745 4.88598 3 4.70163 3 4.5094C3 4.31718 3.07745 4.13283 3.21531 3.99691C3.35316 3.86098 3.54014 3.78462 3.7351 3.78462H6.01391C6.24683 3.78524 6.47165 3.7004 6.64462 3.5466C6.81759 3.3928 6.92633 3.18106 6.9497 2.95257C7.00394 2.41658 7.25863 1.91971 7.66414 1.55875C8.06965 1.19779 8.59692 0.998606 9.14324 1.00001H10.856C11.4023 0.998606 11.9296 1.19779 12.3351 1.55875C12.7406 1.91971 12.9953 2.41658 13.0496 2.95257C13.0729 3.18106 13.1817 3.3928 13.3546 3.5466C13.5276 3.7004 13.7524 3.78524 13.9854 3.78462H16.2642C16.4591 3.78462 16.6461 3.86098 16.784 3.99691C16.9218 4.13283 16.9993 4.31718 16.9993 4.5094H17ZM8.22583 3.78462H11.7749C11.6783 3.567 11.6151 3.3364 11.5875 3.10043C11.5692 2.92177 11.4844 2.75615 11.3494 2.63563C11.2144 2.51512 11.0389 2.4483 10.8568 2.44812H9.14397C8.96187 2.4483 8.78631 2.51512 8.65131 2.63563C8.51631 2.75615 8.43149 2.92177 8.41328 3.10043C8.38537 3.33644 8.32268 3.56704 8.22583 3.78462ZM8.96608 14.7658V8.59428C8.96608 8.40205 8.88863 8.2177 8.75077 8.08178C8.61292 7.94586 8.42594 7.8695 8.23098 7.8695C8.03602 7.8695 7.84904 7.94586 7.71118 8.08178C7.57333 8.2177 7.49588 8.40205 7.49588 8.59428V14.7687C7.49588 14.9609 7.57333 15.1453 7.71118 15.2812C7.84904 15.4171 8.03602 15.4935 8.23098 15.4935C8.42594 15.4935 8.61292 15.4171 8.75077 15.2812C8.88863 15.1453 8.96608 14.9609 8.96608 14.7687V14.7658ZM12.5049 14.7658V8.59428C12.5049 8.40205 12.4274 8.2177 12.2895 8.08178C12.1517 7.94586 11.9647 7.8695 11.7698 7.8695C11.5748 7.8695 11.3878 7.94586 11.25 8.08178C11.1121 8.2177 11.0347 8.40205 11.0347 8.59428V14.7687C11.0347 14.9609 11.1121 15.1453 11.25 15.2812C11.3878 15.4171 11.5748 15.4935 11.7698 15.4935C11.9647 15.4935 12.1517 15.4171 12.2895 15.2812C12.4274 15.1453 12.5049 14.9609 12.5049 14.7687V14.7658Z" fill="#344054"/>
</svg>
