<svg width="24" height="24" viewBox="0 0 24 24" fill="none" xmlns="http://www.w3.org/2000/svg">
<path d="M9.24058 17.9H9.24H5C4.7613 17.9 4.53239 17.8052 4.3636 17.6364C4.19482 17.4676 4.1 17.2387 4.1 17L4.1 12.76L4.1 12.7594C4.09931 12.641 4.12202 12.5236 4.1668 12.4139C4.21157 12.3043 4.27752 12.2046 4.36088 12.1205C4.36092 12.1205 4.36096 12.1205 4.361 12.1204L11.3007 5.19076L11.3008 5.19059L14.1208 2.36059L14.121 2.36042C14.2047 2.27606 14.3042 2.20911 14.4139 2.16342C14.5236 2.11773 14.6412 2.0942 14.76 2.0942C14.8788 2.0942 14.9964 2.11773 15.1061 2.16342C15.2158 2.2091 15.3153 2.27604 15.399 2.36038C15.399 2.36039 15.399 2.36041 15.399 2.36042L19.6389 6.6503L19.6396 6.651C19.7239 6.73467 19.7909 6.83421 19.8366 6.94388C19.8823 7.05355 19.9058 7.17119 19.9058 7.29C19.9058 7.40881 19.8823 7.52645 19.8366 7.63612C19.7909 7.74566 19.7241 7.84509 19.6399 7.92869C19.6398 7.9288 19.6397 7.9289 19.6396 7.929L16.8 10.7085L16.7992 10.7093L9.87958 17.639C9.87951 17.6391 9.87945 17.6391 9.87938 17.6392C9.79533 17.7225 9.69566 17.7884 9.58609 17.8332C9.47644 17.878 9.35902 17.9007 9.24058 17.9ZM5 18H9.24L4.29 12.05C4.19732 12.1434 4.12399 12.2543 4.07423 12.3761C4.02446 12.4979 3.99924 12.6284 4 12.76V17C4 17.2652 4.10536 17.5196 4.29289 17.7071C4.48043 17.8946 4.73478 18 5 18ZM14.8307 4.33929L14.76 4.26858L14.6893 4.33929L13.2693 5.75929L13.1986 5.83L13.2693 5.90071L16.0993 8.73071L16.17 8.80142L16.2407 8.73071L17.6607 7.31071L17.7314 7.24L17.6607 7.16929L14.8307 4.33929ZM5.92929 13.0993L5.9 13.1286V13.17V16V16.1H6H8.83H8.87142L8.90071 16.0707L14.8307 10.1407L14.9014 10.07L14.8307 9.99929L12.0007 7.16929L11.93 7.09858L11.8593 7.16929L5.92929 13.0993ZM3 20.1H21C21.2387 20.1 21.4676 20.1948 21.6364 20.3636C21.8052 20.5324 21.9 20.7613 21.9 21C21.9 21.2387 21.8052 21.4676 21.6364 21.6364C21.4676 21.8052 21.2387 21.9 21 21.9H3C2.76131 21.9 2.53239 21.8052 2.3636 21.6364C2.19482 21.4676 2.1 21.2387 2.1 21C2.1 20.7613 2.19482 20.5324 2.3636 20.3636C2.53239 20.1948 2.76131 20.1 3 20.1Z" fill="#344054" stroke="white" stroke-width="0.2"/>
</svg>
