<svg width="24" height="16" viewBox="0 0 24 16" fill="none" xmlns="http://www.w3.org/2000/svg">
<path d="M12.0001 4.91282C11.1514 4.91282 10.3374 5.23808 9.73731 5.81705C9.1372 6.39601 8.80006 7.18126 8.80006 8.00004C8.80006 8.81883 9.1372 9.60408 9.73731 10.183C10.3374 10.762 11.1514 11.0873 12.0001 11.0873C12.8487 11.0873 13.6627 10.762 14.2628 10.183C14.8629 9.60408 15.2001 8.81883 15.2001 8.00004C15.2001 7.18126 14.8629 6.39601 14.2628 5.81705C13.6627 5.23808 12.8487 4.91282 12.0001 4.91282ZM12.0001 13.1454C10.5856 13.1454 9.22901 12.6033 8.22882 11.6384C7.22863 10.6734 6.66672 9.36468 6.66672 8.00004C6.66672 6.63541 7.22863 5.32666 8.22882 4.36171C9.22901 3.39677 10.5856 2.85467 12.0001 2.85467C13.4145 2.85467 14.7711 3.39677 15.7713 4.36171C16.7715 5.32666 17.3334 6.63541 17.3334 8.00004C17.3334 9.36468 16.7715 10.6734 15.7713 11.6384C14.7711 12.6033 13.4145 13.1454 12.0001 13.1454ZM12.0001 0.281982C6.66672 0.281982 2.11206 3.48241 0.266724 8.00004C2.11206 12.5177 6.66672 15.7181 12.0001 15.7181C17.3334 15.7181 21.8881 12.5177 23.7334 8.00004C21.8881 3.48241 17.3334 0.281982 12.0001 0.281982Z" fill="white"/>
</svg>
