<svg width="41" height="42" viewBox="0 0 41 42" fill="none" xmlns="http://www.w3.org/2000/svg">
<path d="M20.5 0.5C9.1781 0.5 0 9.6781 0 21C0 32.3219 9.1781 41.5 20.5 41.5C31.8219 41.5 41 32.3219 41 21C41 9.6781 31.8219 0.5 20.5 0.5Z" fill="#003161"/>
<path d="M10.2891 26.2182C10.4312 26.9853 10.8282 27.6749 11.4094 28.1645C11.9906 28.6541 12.7186 28.9121 13.4642 28.8927H16.4146C16.4146 30.0276 16.8449 31.116 17.6107 31.9185C18.3766 32.721 19.4153 33.1719 20.4983 33.1719C21.5814 33.1719 22.6201 32.721 23.386 31.9185C24.1518 31.116 24.582 30.0276 24.582 28.8927H27.5325C28.2781 28.9121 29.006 28.6541 29.5873 28.1645C30.1685 27.6749 30.5654 26.9853 30.7076 26.2182C30.8132 25.5603 30.7204 24.8842 30.4423 24.2841C30.1642 23.684 29.7145 23.1896 29.1558 22.8697C29.0125 22.7768 28.8953 22.6456 28.8163 22.4895C28.7374 22.3335 28.6995 22.1582 28.7066 21.9818V18.5049C28.7129 16.7603 28.2333 15.0517 27.3266 13.5885C26.4199 12.1253 25.1254 10.9711 23.602 10.2675C23.4906 9.50993 23.1241 8.81919 22.5689 8.32019C22.0137 7.82119 21.3064 7.54688 20.5749 7.54688C19.8435 7.54688 19.1361 7.82119 18.5809 8.32019C18.0257 8.81919 17.6593 9.50993 17.5479 10.2675C16.5554 10.6817 15.6501 11.296 14.8832 12.0754C14.0844 12.861 13.4462 13.8085 13.0075 14.8604C12.5687 15.9123 12.3385 17.0467 12.3309 18.1947V21.9818C12.338 22.1582 12.3001 22.3335 12.2212 22.4895C12.1422 22.6456 12.0251 22.7768 11.8817 22.8697C11.3155 23.1833 10.8573 23.675 10.5716 24.2756C10.2859 24.8763 10.1871 25.5556 10.2891 26.2182ZM20.4983 31.0323C19.9568 31.0323 19.4375 30.8069 19.0545 30.4056C18.6716 30.0043 18.4565 29.4601 18.4565 28.8927H22.5402C22.5402 29.4601 22.3251 30.0043 21.9421 30.4056C21.5592 30.8069 21.0399 31.0323 20.4983 31.0323ZM12.8618 24.7419C13.3258 24.465 13.7107 24.063 13.9764 23.5777C14.2421 23.0923 14.3789 22.5413 14.3728 21.9818V18.1947C14.372 17.3349 14.5361 16.4837 14.8553 15.6917C15.1745 14.8996 15.6422 14.1828 16.2309 13.5838C16.7143 13.0882 17.2777 12.6861 17.895 12.3964C18.707 11.9863 19.597 11.7742 20.4983 11.7759H20.6923C21.5268 11.8063 22.3452 12.0253 23.0915 12.4178C24.1589 12.9922 25.0538 13.8648 25.6773 14.9391C26.3007 16.0134 26.6283 17.2476 26.6239 18.5049V21.9818C26.6177 22.5413 26.7546 23.0923 27.0203 23.5777C27.286 24.063 27.6709 24.465 28.1349 24.7419C28.3249 24.8468 28.4785 25.0118 28.5738 25.2135C28.6691 25.4152 28.7013 25.6432 28.6658 25.8651C28.6048 26.126 28.4598 26.3569 28.2551 26.5187C28.0505 26.6804 27.7989 26.7632 27.5427 26.7531H13.4642C13.2077 26.7663 12.9547 26.6862 12.7482 26.5263C12.5416 26.3664 12.3942 26.1366 12.3309 25.8758C12.2931 25.6523 12.3242 25.4219 12.4196 25.218C12.515 25.0141 12.6699 24.8474 12.8618 24.7419Z" fill="white"/>
</svg>
