<svg width="192" height="192" viewBox="0 0 192 192" fill="none" xmlns="http://www.w3.org/2000/svg">
<path d="M192 96C192 121.461 181.886 145.879 163.883 163.882C145.879 181.886 121.461 192 96.0006 192C70.5398 192 46.1221 181.886 28.1186 163.882C10.1151 145.879 8.01915e-06 121.461 0 96C0 70.5392 10.1151 46.1213 28.1186 28.1178C46.1221 10.1142 70.5398 0 96.0006 0C121.461 0 145.879 10.1142 163.883 28.1178C181.886 46.1213 192 70.5392 192 96Z" fill="#003161"/>
<path d="M133.113 82.2659L85.1133 122.268C83.5791 123.553 81.619 124.215 79.6203 124.126C77.6215 124.036 75.7296 123.201 74.3164 121.785L58.3152 105.784C56.8253 104.274 55.993 102.236 56 100.115C56.0071 97.9937 56.8531 95.9614 58.353 94.4615C59.8529 92.9617 61.8846 92.116 64.0057 92.1089C66.1269 92.1019 68.1652 92.9341 69.675 94.4239L80.4747 105.303L122.875 69.9447C123.681 69.2496 124.618 68.722 125.63 68.3928C126.642 68.0637 127.709 67.9394 128.77 68.0274C129.83 68.1155 130.863 68.414 131.807 68.9055C132.75 69.3971 133.587 70.0717 134.268 70.8901C134.948 71.7086 135.458 72.6544 135.769 73.6723C136.079 74.6902 136.183 75.7598 136.076 76.8186C135.969 77.8774 135.652 78.9042 135.143 79.8389C134.634 80.7737 133.944 81.6007 133.113 82.2659Z" fill="white"/>
</svg>
